<svg width="51" height="47" viewBox="0 0 51 47" fill="none" xmlns="http://www.w3.org/2000/svg">
<path d="M41.4821 14.4286H1.80357C1.32523 14.4286 0.866489 14.6186 0.528254 14.9568C0.190019 15.2951 0 15.7538 0 16.2321V27.0536C0.0053901 30.1241 0.662047 33.1586 1.92662 35.9567C3.19118 38.7547 5.0349 41.2527 7.33603 43.2857H1.80357C1.32523 43.2857 0.866489 43.4757 0.528254 43.814C0.190019 44.1522 0 44.611 0 45.0893C0 45.5676 0.190019 46.0264 0.528254 46.3646C0.866489 46.7028 1.32523 46.8929 1.80357 46.8929H41.4821C41.9605 46.8929 42.4192 46.7028 42.7575 46.3646C43.0957 46.0264 43.2857 45.5676 43.2857 45.0893C43.2857 44.611 43.0957 44.1522 42.7575 43.814C42.4192 43.4757 41.9605 43.2857 41.4821 43.2857H35.9497C38.7118 40.8375 40.8064 37.7274 42.0367 34.2476C44.3275 34.1064 46.4783 33.0971 48.0508 31.4254C49.6233 29.7536 50.4992 27.5451 50.5 25.25V23.4464C50.5 21.0547 49.5499 18.761 47.8587 17.0698C46.1676 15.3787 43.8738 14.4286 41.4821 14.4286ZM46.8929 25.25C46.8921 26.4169 46.5141 27.5522 45.8152 28.4867C45.1164 29.4211 44.1342 30.1047 43.0152 30.4353C43.1937 29.3169 43.2842 28.1861 43.2857 27.0536V18.3468C44.3404 18.7197 45.2535 19.4103 45.8995 20.3235C46.5455 21.2368 46.8925 22.3278 46.8929 23.4464V25.25ZM19.8393 9.01786V1.80357C19.8393 1.32523 20.0293 0.866489 20.3675 0.528254C20.7058 0.190019 21.1645 0 21.6429 0C22.1212 0 22.5799 0.190019 22.9182 0.528254C23.2564 0.866489 23.4464 1.32523 23.4464 1.80357V9.01786C23.4464 9.49619 23.2564 9.95494 22.9182 10.2932C22.5799 10.6314 22.1212 10.8214 21.6429 10.8214C21.1645 10.8214 20.7058 10.6314 20.3675 10.2932C20.0293 9.95494 19.8393 9.49619 19.8393 9.01786ZM27.0536 9.01786V1.80357C27.0536 1.32523 27.2436 0.866489 27.5818 0.528254C27.9201 0.190019 28.3788 0 28.8571 0C29.3355 0 29.7942 0.190019 30.1325 0.528254C30.4707 0.866489 30.6607 1.32523 30.6607 1.80357V9.01786C30.6607 9.49619 30.4707 9.95494 30.1325 10.2932C29.7942 10.6314 29.3355 10.8214 28.8571 10.8214C28.3788 10.8214 27.9201 10.6314 27.5818 10.2932C27.2436 9.95494 27.0536 9.49619 27.0536 9.01786ZM12.625 9.01786V1.80357C12.625 1.32523 12.815 0.866489 13.1533 0.528254C13.4915 0.190019 13.9502 0 14.4286 0C14.9069 0 15.3657 0.190019 15.7039 0.528254C16.0421 0.866489 16.2321 1.32523 16.2321 1.80357V9.01786C16.2321 9.49619 16.0421 9.95494 15.7039 10.2932C15.3657 10.6314 14.9069 10.8214 14.4286 10.8214C13.9502 10.8214 13.4915 10.6314 13.1533 10.2932C12.815 9.95494 12.625 9.49619 12.625 9.01786Z" fill="#D27C2C"/>
</svg>
