<svg width="51" height="50" viewBox="0 0 51 50" fill="none" xmlns="http://www.w3.org/2000/svg">
<path d="M25.5 4.16663C22.7641 4.16663 20.055 4.7055 17.5274 5.75247C14.9998 6.79944 12.7031 8.33401 10.7686 10.2686C6.86156 14.1756 4.66663 19.4746 4.66663 25C4.66663 30.5253 6.86156 35.8243 10.7686 39.7314C12.7031 41.6659 14.9998 43.2005 17.5274 44.2475C20.055 45.2944 22.7641 45.8333 25.5 45.8333C31.0253 45.8333 36.3243 43.6384 40.2314 39.7314C44.1384 35.8243 46.3333 30.5253 46.3333 25C46.3333 22.2641 45.7944 19.555 44.7475 17.0274C43.7005 14.4998 42.1659 12.2031 40.2314 10.2686C38.2968 8.33401 36.0002 6.79944 33.4725 5.75247C30.9449 4.7055 28.2358 4.16663 25.5 4.16663ZM25.5 8.33329C29.9202 8.33329 34.1595 10.0892 37.2851 13.2148C40.4107 16.3405 42.1666 20.5797 42.1666 25C42.1666 30 40.0833 34.375 36.5416 37.5C33.625 34.7916 29.6666 33.3333 25.5 33.3333C21.3333 33.3333 17.5833 34.7916 14.4583 37.5C10.9166 34.375 8.83329 30 8.83329 25C8.83329 20.5797 10.5892 16.3405 13.7148 13.2148C16.8405 10.0892 21.0797 8.33329 25.5 8.33329ZM29.6666 12.2708C28.875 12.2916 28.125 12.8125 27.7916 13.625L25.1041 20.3541L24.8958 20.8333C23.4166 21.1041 22.1875 22.0833 21.625 23.4583C20.7708 25.6041 21.8125 28.0208 23.9583 28.875C26.1041 29.7291 28.5208 28.6875 29.375 26.5416C29.9166 25.1666 29.6666 23.5833 28.7708 22.4166L28.9791 21.875L31.6666 15.1875L31.6875 15.125C32.1041 14.0625 31.5833 12.8541 30.5208 12.4166C30.25 12.3125 29.9791 12.2708 29.6666 12.2708ZM21.3333 12.5C20.7808 12.5 20.2509 12.7195 19.8602 13.1102C19.4695 13.5009 19.25 14.0308 19.25 14.5833C19.25 15.1358 19.4695 15.6657 19.8602 16.0564C20.2509 16.4471 20.7808 16.6666 21.3333 16.6666C21.8858 16.6666 22.4157 16.4471 22.8064 16.0564C23.1971 15.6657 23.4166 15.1358 23.4166 14.5833C23.4166 14.0308 23.1971 13.5009 22.8064 13.1102C22.4157 12.7195 21.8858 12.5 21.3333 12.5ZM15.0833 18.75C14.5308 18.75 14.0009 18.9695 13.6102 19.3602C13.2195 19.7509 13 20.2808 13 20.8333C13 21.3858 13.2195 21.9157 13.6102 22.3064C14.0009 22.6971 14.5308 22.9166 15.0833 22.9166C15.6358 22.9166 16.1657 22.6971 16.5564 22.3064C16.9471 21.9157 17.1666 21.3858 17.1666 20.8333C17.1666 20.2808 16.9471 19.7509 16.5564 19.3602C16.1657 18.9695 15.6358 18.75 15.0833 18.75ZM35.9166 18.75C35.3641 18.75 34.8342 18.9695 34.4435 19.3602C34.0528 19.7509 33.8333 20.2808 33.8333 20.8333C33.8333 21.3858 34.0528 21.9157 34.4435 22.3064C34.8342 22.6971 35.3641 22.9166 35.9166 22.9166C36.4692 22.9166 36.9991 22.6971 37.3898 22.3064C37.7805 21.9157 38 21.3858 38 20.8333C38 20.2808 37.7805 19.7509 37.3898 19.3602C36.9991 18.9695 36.4692 18.75 35.9166 18.75Z" fill="#00DDA3"/>
</svg>
