<svg width="49" height="49" viewBox="0 0 49 49" fill="none" xmlns="http://www.w3.org/2000/svg">
<path d="M28.0141 0V28.3371H20.9859V0H28.0141ZM41.8253 7.17474C46.2589 11.6084 49 17.7345 49 24.5C49 38.031 38.031 49 24.5 49C10.969 49 3.8147e-06 38.031 3.8147e-06 24.5C3.8147e-06 17.7345 2.74114 11.6084 7.17474 7.17474L12.1095 12.1095C8.93834 15.2805 6.97736 19.6617 6.97736 24.5C6.97736 34.1767 14.8233 42.0226 24.5 42.0226C34.1767 42.0226 42.0226 34.1767 42.0226 24.5C42.0226 19.6617 40.0616 15.2805 36.8905 12.1095L41.8253 7.17474Z" fill="#F24E1E"/>
</svg>
