<svg width="51" height="50" viewBox="0 0 51 50" fill="none" xmlns="http://www.w3.org/2000/svg">
<g clip-path="url(#clip0_11_862)">
<path d="M25.5001 0C24.1539 0 23.1808 0.565385 22.7962 1.14231C22.6039 1.33462 22.4481 1.73077 22.2558 1.92308H19.7308C17.6154 1.92308 15.8847 3.65385 15.8847 5.76923H12.0385C8.76929 5.76923 6.26929 8.26923 6.26929 11.5385V44.2308C6.26929 47.5 8.76929 50 12.0385 50H38.9616C42.2308 50 44.7308 47.5 44.7308 44.2308V11.5385C44.7308 8.26923 42.2308 5.76923 38.9616 5.76923H35.1154C35.1154 3.65385 33.3847 1.92308 31.2693 1.92308H28.7443C28.552 1.73077 28.3981 1.33462 28.2058 1.14231C27.8193 0.565385 26.8462 0 25.5001 0ZM19.7308 5.76923H31.2693V9.61538H19.7308V5.76923ZM12.0385 11.5385H16.4866C17.0635 12.6923 18.3847 13.4615 19.7308 13.4615H31.2693C32.6154 13.4615 33.9366 12.6923 34.5154 11.5385H38.9616V44.2308H12.0385V11.5385ZM32.352 20.5538C31.9904 20.5538 31.6404 20.6846 31.4481 20.9731L22.977 29.9885L19.7308 26.9231C19.1539 26.3462 18.1924 26.3462 17.8077 26.9231L16.4847 28.2462C15.9077 28.8231 15.9077 29.7846 16.4847 30.1692L21.8347 35.2154C22.6039 35.9846 23.7693 35.7442 24.5385 34.975L34.9347 23.8596C35.3193 23.475 35.3327 22.6923 34.7558 22.1154L33.3712 20.9731C33.1007 20.7032 32.7341 20.5537 32.352 20.5538Z" fill="#9747FF"/>
</g>
<defs>
<clipPath id="clip0_11_862">
<rect width="50" height="50" fill="white" transform="translate(0.5)"/>
</clipPath>
</defs>
</svg>
