<svg width="51" height="50" viewBox="0 0 51 50" fill="none" xmlns="http://www.w3.org/2000/svg">
<path fill-rule="evenodd" clip-rule="evenodd" d="M27.2982 26.7982V41.225L30.6527 37.8697C30.9876 37.5347 31.4419 37.3465 31.9156 37.3465C32.3893 37.3465 32.8436 37.5347 33.1786 37.8697C33.5135 38.2046 33.7017 38.6589 33.7017 39.1326C33.7017 39.6063 33.5135 40.0606 33.1786 40.3956L26.8652 46.7081L26.8188 46.7527C26.6517 46.9321 26.4495 47.0751 26.2248 47.173C26.0001 47.2708 25.7576 47.3214 25.5125 47.3214C25.0897 47.3215 24.6806 47.1715 24.3581 46.8982C24.2786 46.8414 24.2039 46.778 24.1348 46.7089L17.8223 40.3956C17.4874 40.0607 17.2992 39.6065 17.2991 39.1329C17.299 38.6593 17.4871 38.2051 17.8219 37.8701C18.1567 37.5352 18.6109 37.3469 19.0845 37.3468C19.5581 37.3468 20.0124 37.5348 20.3473 37.8697L23.7268 41.2491V26.7982H9.27502L12.6304 30.1527C12.7962 30.3185 12.9278 30.5154 13.0175 30.7321C13.1073 30.9488 13.1535 31.1811 13.1535 31.4156C13.1535 31.6502 13.1073 31.8824 13.0175 32.0991C12.9278 32.3158 12.7962 32.5127 12.6304 32.6786C12.4645 32.8444 12.2676 32.976 12.0509 33.0658C11.8342 33.1555 11.602 33.2017 11.3674 33.2017C11.1329 33.2017 10.9006 33.1555 10.6839 33.0658C10.4672 32.976 10.2703 32.8444 10.1045 32.6786L3.79198 26.3652L3.74734 26.3188C3.56797 26.1517 3.4249 25.9495 3.32705 25.7248C3.2292 25.5001 3.17867 25.2576 3.17859 25.0125C3.17859 24.5723 3.33752 24.1688 3.6018 23.8581C3.65835 23.7795 3.72145 23.7051 3.79109 23.6348L10.1045 17.3223C10.4393 16.9874 10.8935 16.7992 11.3671 16.7991C11.8407 16.799 12.295 16.9871 12.6299 17.3219C12.9649 17.6567 13.1531 18.1109 13.1532 18.5845C13.1533 19.0581 12.9652 19.5124 12.6304 19.8473L9.25002 23.2268H23.7259V8.75091L20.3464 12.1304C20.0115 12.4653 19.5572 12.6535 19.0835 12.6535C18.6098 12.6535 18.1555 12.4653 17.8206 12.1304C17.4856 11.7954 17.2974 11.3411 17.2974 10.8674C17.2974 10.3937 17.4856 9.93944 17.8206 9.60448L24.1339 3.29198C24.2042 3.22055 24.2786 3.15716 24.3572 3.1018C24.6797 2.82851 25.0888 2.67855 25.5116 2.67859C26.0277 2.67859 26.492 2.89734 26.8179 3.24734C26.8339 3.26162 26.8494 3.27651 26.8643 3.29198L33.1768 9.60448C33.3427 9.77028 33.4742 9.96711 33.564 10.1838C33.6538 10.4004 33.7 10.6326 33.7001 10.8671C33.7001 11.1016 33.654 11.3338 33.5642 11.5505C33.4745 11.7672 33.343 11.9641 33.1772 12.1299C33.0115 12.2958 32.8146 12.4274 32.598 12.5171C32.3813 12.6069 32.1491 12.6531 31.9146 12.6532C31.6801 12.6532 31.4479 12.6071 31.2312 12.5174C31.0145 12.4277 30.8177 12.2962 30.6518 12.1304L27.2973 8.77502V23.2268H41.7482L38.3688 19.8473C38.2029 19.6815 38.0714 19.4846 37.9816 19.2679C37.8918 19.0512 37.8456 18.8189 37.8456 18.5844C37.8456 18.3498 37.8918 18.1176 37.9816 17.9009C38.0714 17.6842 38.2029 17.4873 38.3688 17.3214C38.7037 16.9865 39.158 16.7983 39.6317 16.7983C39.8663 16.7983 40.0985 16.8445 40.3152 16.9343C40.5319 17.024 40.7288 17.1556 40.8947 17.3214L47.2072 23.6348C47.2786 23.7051 47.342 23.7795 47.3973 23.8581C47.6616 24.1688 47.8206 24.5723 47.8206 25.0125C47.8206 25.5286 47.6018 25.9929 47.2518 26.3188L47.2072 26.3652L40.8947 32.6777C40.5598 33.0126 40.1056 33.2009 39.632 33.201C39.1584 33.201 38.7042 33.013 38.3692 32.6781C38.0343 32.3433 37.846 31.8891 37.846 31.4155C37.8459 30.9419 38.0339 30.4876 38.3688 30.1527L41.7241 26.7982H27.2982Z" fill="#FF9A62"/>
</svg>
